<?xml version="1.0" encoding="utf-8"?>
<!-- Generator: Adobe Illustrator 28.0.0, SVG Export Plug-In . SVG Version: 6.00 Build 0)  -->
<svg version="1.1" id="Layer_1" xmlns="http://www.w3.org/2000/svg" xmlns:xlink="http://www.w3.org/1999/xlink" x="0px" y="0px"
	 viewBox="0 0 489 438.7" style="enable-background:new 0 0 489 438.7;" xml:space="preserve">
<style type="text/css">
	.st0{display:none;fill:#191C28;}
	.st1{fill:#F35C4B;stroke:#F35C4B;stroke-width:1.1466;stroke-miterlimit:10;}
	.st2{fill:#F5AAED;}
	.st3{fill:#F35C4B;}
	.st4{fill:#88CCE7;}
	.st5{fill:#E20707;}
	.st6{fill:#F95041;}
	.st7{fill:#3E4F8A;}
	.st8{fill:#E8C248;}
	.st9{fill:#F2BAAA;}
	.st10{fill:#D8738E;}
</style>
<rect x="-1.1" y="1.8" class="st0" width="489" height="438.7"/>
<path class="st1" d="M238,259.1c-15.5-53.2-21-110.5-6.2-164c6.3-22.6,31-45.5,54.2-42.9c17.8,1.9,31.9,13.3,38.9,21.1
	c29,32.2,23,68,21.9,121.8c19-51.4,36.9-84.5,58.7-106.8c17.2-17.4,36.1-21.3,53-13.6c15.7,7.1,23.3,26.5,22,40.4
	c-8.3,92-58,174.9-113.5,246.4C297.8,451.1,256.2,321.4,238,259.1z"/>
<g>
	<g>
		
			<rect x="36.9" y="137.4" transform="matrix(0.9665 -0.2566 0.2566 0.9665 -57.7377 57.0286)" class="st2" width="305.5" height="224.7"/>
		<g>
			<path class="st2" d="M73.7,397.9c-1.9-7.2-3.8-14.4-5.7-21.7c-4.6-17.3-9.2-34.6-13.8-51.8c-5.5-20.9-11.1-41.9-16.6-62.7
				c-4.8-18.1-9.6-36.2-14.4-54.4c-1.6-6-3.1-11.8-4.7-17.8c-0.5-1.8-1-3.7-1.5-5.5c-0.2-0.8-0.3-2.2-0.8-2.9
				c-0.1-0.1-0.1-0.2-0.1-0.3c-0.1,0.1-0.2,0.1-0.5,0.2c2.6-0.7,5.3-1.4,7.9-2.1c7.2-1.9,14.3-3.8,21.6-5.7
				c10.5-2.8,21.1-5.6,31.6-8.4c12.8-3.4,25.8-6.9,38.6-10.2c14.2-3.8,28.3-7.6,42.5-11.2c14.3-3.8,28.7-7.6,42.9-11.4
				c13.3-3.6,26.7-7.1,40-10.7c11.2-3,22.5-6,33.7-8.9c8-2.2,16.2-4.2,24.2-6.4c3.9-1,7.7-1.9,11.6-3.1c0.1,0,0.3-0.1,0.5-0.1
				c-1.7-0.3-3.6-0.6-5.3-0.9c1.9,7.2,3.8,14.4,5.7,21.7c4.6,17.3,9.2,34.6,13.8,51.8c5.5,20.9,11.1,41.9,16.6,62.7
				c4.8,18.1,9.6,36.2,14.4,54.4c1.6,6,3.1,11.8,4.7,17.8c0.5,1.8,1,3.7,1.5,5.5c0.2,0.8,0.3,2.2,0.8,2.9c0.1,0.1,0.1,0.2,0.1,0.3
				c0.1-0.1,0.2-0.1,0.5-0.2c-2.6,0.7-5.3,1.4-7.9,2.1c-7.2,1.9-14.3,3.8-21.6,5.7c-10.5,2.8-21.1,5.6-31.6,8.4
				c-12.8,3.4-25.8,6.9-38.6,10.2c-14.2,3.8-28.3,7.6-42.5,11.2c-14.3,3.8-28.7,7.6-42.9,11.4c-13.3,3.6-26.7,7.1-40,10.7
				c-11.2,3-22.5,6-33.7,8.9c-8,2.2-16.2,4.2-24.2,6.4c-3.9,1-7.7,2.1-11.6,3.1c-0.1,0-0.3,0.1-0.5,0.1c-1.1,0.3,0.6,0.8,0.9,0.8
				c1.1,0.2,2.8,0.6,3.9,0.2c2.6-0.7,5.3-1.4,7.9-2.1c7.2-1.9,14.3-3.8,21.6-5.7c10.5-2.8,21.1-5.6,31.6-8.4
				c12.8-3.4,25.8-6.9,38.6-10.2c14.2-3.8,28.3-7.6,42.5-11.2c14.3-3.8,28.7-7.6,42.9-11.4c13.3-3.6,26.7-7.1,40-10.7
				c11.2-3,22.5-6,33.7-8.9c8-2.2,16.2-4.2,24.2-6.4c3.9-1,7.7-2.1,11.6-3.1c0.1,0,0.3-0.1,0.5-0.1c0.2,0,0.3-0.1,0.5-0.2
				c-1.9-7.2-3.8-14.4-5.7-21.7c-4.6-17.3-9.2-34.6-13.8-51.8c-5.5-20.9-11.1-41.9-16.6-62.7c-4.8-18.1-9.6-36.2-14.4-54.4
				c-1.6-6-3.1-11.8-4.7-17.8c-0.7-2.8-1.1-5.8-2.3-8.5c0-0.1-0.1-0.2-0.1-0.3c-0.3-1-4.5-1.1-5.3-0.9c-2.6,0.7-5.3,1.4-7.9,2.1
				c-7.2,1.9-14.3,3.8-21.6,5.7c-10.5,2.8-21.1,5.6-31.6,8.4c-12.8,3.4-25.8,6.9-38.6,10.2c-14.2,3.8-28.3,7.6-42.5,11.2
				c-14.3,3.8-28.7,7.6-42.9,11.4c-13.3,3.6-26.7,7.1-40,10.7c-11.2,3-22.5,6-33.7,8.9c-8,2.2-16.2,4.2-24.2,6.4
				c-3.9,1-7.7,2.1-11.6,3.1c-0.1,0-0.3,0.1-0.5,0.1c-0.2,0-0.3,0.1-0.5,0.2c1.9,7.2,3.8,14.4,5.7,21.7c4.6,17.3,9.2,34.6,13.8,51.8
				c5.5,20.9,11.1,41.9,16.6,62.7c4.8,18.1,9.6,36.2,14.4,54.4c1.6,6,3.1,11.8,4.7,17.8c0.7,2.8,1.3,5.7,2.3,8.5
				c0,0.1,0.1,0.2,0.1,0.3C68.3,398.6,73.7,398.1,73.7,397.9z"/>
		</g>
	</g>
	<g>
		<g>
			<g>
				<path class="st3" d="M69.8,397.1c2.8-4.9,5.4-9.9,8.1-14.8c6.5-11.7,13-23.5,19.5-35.2c7.8-14.2,15.7-28.4,23.5-42.5
					c6.8-12.3,13.5-24.7,20.4-36.9c2.3-4,4.5-8.1,6.8-12.2c0.7-1.3,1.4-2.5,2.1-3.8c0.3-0.6,0.9-1.3,1-1.9c0-0.1,0.1-0.1,0.1-0.2
					c0.2-0.5-1.1-0.3-1.3-0.2c-0.6,0.1-1.6,0.3-1.9,0.9c-2.8,4.9-5.4,9.9-8.1,14.8c-6.5,11.7-13,23.5-19.5,35.2
					c-7.8,14.2-15.7,28.4-23.5,42.5c-6.8,12.3-13.5,24.7-20.4,36.9c-2.3,4-4.5,8.1-6.8,12.2c-0.7,1.3-1.4,2.5-2.1,3.8
					c-0.3,0.6-0.9,1.3-1,1.9c0,0.1-0.1,0.1-0.1,0.2c-0.2,0.5,1.1,0.3,1.3,0.2C68.5,397.8,69.6,397.6,69.8,397.1L69.8,397.1z"/>
			</g>
		</g>
	</g>
	<g>
		<g>
			<g>
				<path class="st3" d="M370.4,317.3c-4.4-3-8.6-6-13-8.9c-10.4-7.2-20.8-14.3-31.2-21.6c-12.6-8.7-25.1-17.4-37.7-26
					c-10.9-7.6-21.7-15-32.6-22.6c-5.3-3.7-10.4-7.5-15.8-11c-0.1,0-0.1-0.1-0.2-0.1c-0.6-0.5-1.5-0.2-2.2,0
					c-0.2,0.1-1.5,0.8-0.9,1.3c4.4,3,8.6,6,13,8.9c10.4,7.2,20.8,14.3,31.2,21.6c12.6,8.7,25.1,17.4,37.7,26
					c10.9,7.6,21.7,15,32.6,22.6c5.3,3.7,10.4,7.5,15.8,11c0.1,0,0.1,0.1,0.2,0.1c0.6,0.5,1.5,0.2,2.2,0
					C369.7,318.5,370.9,317.7,370.4,317.3L370.4,317.3z"/>
			</g>
		</g>
	</g>
	<g>
		<g>
			<path class="st3" d="M14.7,186.1c6.1,2.9,12,5.8,18.1,8.7c14.3,6.9,28.7,13.9,42.9,20.8c17.2,8.3,34.3,16.5,51.5,24.9
				c14.6,7,29.1,14.1,43.7,21.1c6.5,3.1,13,6.4,19.6,9.4c9.2,4.2,20.9,0.7,26.1-7.9c1.3-2.1,2.5-4.2,3.7-6.4
				c6.7-11.4,13.3-22.8,19.8-34.2c9.4-16.2,18.8-32.2,28.1-48.4c8.8-15.1,17.7-30.3,26.5-45.4c4.9-8.5,9.9-16.9,14.7-25.3
				c0.2-0.3,0.5-0.8,0.7-1.1c0.9-1.5-2.5-1.5-3.2-0.3c-3.4,5.8-6.9,11.8-10.3,17.7c-8,13.9-16.2,27.7-24.2,41.6
				c-9.5,16.4-19,32.7-28.6,49.1c-7.6,13.1-15.3,26.1-22.8,39.2c-2.1,3.7-4.2,7.3-6.3,10.9c-2.4,4.1-5.3,7.7-10.1,9.3
				c-4.9,1.7-9.6,0.6-14.1-1.6c-3.6-1.7-7.1-3.4-10.7-5.2c-13.3-6.4-26.5-12.8-39.8-19.3c-16.9-8.1-33.7-16.3-50.7-24.4
				c-15.4-7.5-30.7-14.8-46-22.2c-8.4-4-16.7-8-25.1-12.2c-0.3-0.2-0.8-0.3-1.1-0.6c-0.8-0.3-1.7-0.2-2.4,0.2
				C14.5,184.9,13.9,185.8,14.7,186.1L14.7,186.1z"/>
		</g>
	</g>
</g>
<g>
	<path class="st4" d="M154.6,220.3c0,0-35,0.1-31.5,16.2C126.8,253.8,154.6,220.3,154.6,220.3z"/>
	<g>
		<g>
			<g>
				<path class="st4" d="M277.3,341.8c-3.8-5.2-7.8-10.2-11.8-15.3c-10.2-12.6-20.9-24.9-31.9-36.8c-14.7-15.8-30.2-31-46.4-45.1
					c-17.3-15-35.8-28.9-55.7-40.2c-18.5-10.5-38.4-19-59.5-22.4c-2.4-0.3-4.8-0.7-7.3-0.9c-0.7-0.1-1.8,0.2-2.2,1
					c-0.3,0.7,0.3,1.3,1,1.3c20.9,1.8,40.9,9.5,59.4,19.4c20.1,10.8,38.6,24.2,56.1,38.8c16.6,14,32.3,29,47.2,44.8
					c11.7,12.3,22.8,25.1,33.6,38.2c3.3,4.1,6.7,8.3,9.9,12.4c1.5,1.9,2.9,4,4.5,6c0.1,0.1,0.1,0.1,0.2,0.2
					C275.1,344.4,278.2,343.2,277.3,341.8L277.3,341.8z"/>
			</g>
		</g>
		<path class="st4" d="M76.9,183.6c0,0-36.5-21.7-38.3-3C36.7,200.7,76.9,183.6,76.9,183.6z"/>
		<path class="st4" d="M92.2,188.2c0,0-42.3,2.5-33.4,19C68.5,225,92.2,188.2,92.2,188.2z"/>
		<path class="st4" d="M93.1,188c0,0-8.3-41.6-23.4-30.5C53.4,169.5,93.1,188,93.1,188z"/>
		<path class="st4" d="M125.7,202.2c0,0-42.2-4.4-36,13.4C96.3,234.6,125.7,202.2,125.7,202.2z"/>
		<path class="st4" d="M125,203.2c0,0-1.5-42.4-18.1-33.8C88.9,178.6,125,203.2,125,203.2z"/>
		<path class="st4" d="M155.9,220.9c0,0,9.1-39.4-6.1-31.8C133.7,197.4,155.9,220.9,155.9,220.9z"/>
	</g>
</g>
<g>
	<g>
		<path class="st5" d="M269.5,367c-0.9-1.6-1.8-3.2-2.8-4.8c-2.5-4.4-5-8.7-7.6-13.1c-3.8-6.5-7.6-13.1-11.5-19.7
			c-4.7-8.1-9.5-16.3-14.3-24.3c-5.4-9.2-10.9-18.3-16.4-27.5c-5.7-9.5-11.6-19.1-17.4-28.6c-5.8-9.4-11.7-18.8-17.7-28.2
			c-5.5-8.7-11.1-17.3-16.9-25.8c-4.9-7.3-10-14.7-15.1-21.9c-4-5.5-8-10.9-12.5-15.9c-0.8-0.9-1.7-1.9-2.5-2.9
			c-0.9-1-4.1,0.3-3.1,1.4c4.2,4.5,8,9.4,11.8,14.3c5,6.7,9.9,13.5,14.6,20.5c5.6,8.3,11.1,16.6,16.5,25.1
			c6,9.2,11.7,18.5,17.4,27.7c6,9.5,11.8,19.1,17.7,28.8c5.6,9.3,11.1,18.6,16.7,27.9c5,8.5,10,16.9,15,25.3
			c4.1,7,8.1,13.9,12.2,20.9c2.9,4.9,5.7,9.9,8.6,14.9c1.3,2.3,2.5,4.7,4,6.9c0.1,0.1,0.1,0.2,0.1,0.3
			C267.1,369.5,270.3,368.3,269.5,367L269.5,367z"/>
	</g>
</g>
<g>
	<path class="st6" d="M126,159.8c6.4,0,11.6-5.4,11.2-11.8c-0.7-16.4-4-47.1-18.5-62.3C98.5,64.4,87,78.8,93.7,92.3
		c3.3,6.8,2.1,4.1,2.1,4.1s-19.6-19.1-26-8.8s6.2,23.6,6.2,23.6s-16.9-6.2-18.8,2.6C54,127.7,86.9,159.6,126,159.8z"/>
	<g>
		<g>
			<path class="st5" d="M103.7,139.6c7.9,2.8,16.1,6.3,22.9,11.2c2.3,1.6,4.6,3.6,6.1,6c0.6,0.9,3.8-0.1,3.1-1.3
				c-6.5-11-13.4-22-21.3-32.1c-1.5-1.9-3.3-4.6-5.7-5.6c-0.7-0.3-1.7-0.1-2.3,0.3c-0.5,0.2-1,0.9-0.3,1.3c1.8,0.8,3.4,3.1,4.7,4.6
				c2.4,3,4.6,6.1,6.7,9.2c4.4,6.3,8.5,12.8,12.5,19.4c0.9,1.4,1.7,2.9,2.6,4.4c1-0.5,2.1-0.8,3.1-1.3c-3-4.5-8-7.5-12.6-10
				c-4.5-2.4-9.2-4.5-13.9-6.3c-1-0.3-2.1-0.8-3.1-1.1c-0.8-0.2-1.7-0.1-2.3,0.3C103.7,138.5,102.9,139.4,103.7,139.6L103.7,139.6z"
				/>
		</g>
	</g>
</g>
<path class="st5" d="M170.1,207.8c-3.6-3.4-26.7-24-60.7-15.6c-0.7,0.2-1,1-0.6,1.6c5.2,5.8,29.1,30.2,61.1,14.8
	C170.2,208.4,170.3,208,170.1,207.8z"/>
<path class="st5" d="M157.8,111.5c-2.9,6-19.5,43.9,2.5,79.5c0.5,0.8,1.7,0.7,2.2-0.2c5.3-9.2,26-49.9-3.8-79.5
	C158.5,110.9,158,111,157.8,111.5z"/>
<g>
	<g>
		<path class="st7" d="M187.5,73.9c-0.5,0.6-0.8,1.3-1.1,1.9c-0.9,1.8-1.6,3.7-2.3,5.6c-1.1,3.4-1.9,6.9-2.8,10.4
			c-1,5.2-1.6,10.3-2.1,15.6c-0.6,7.2-0.7,14.6-0.6,21.8c0.2,9.6,0.9,19.1,1.8,28.7c1.3,12,3.1,24.1,5.2,36.1
			c2.6,14.9,6,29.8,9.5,44.6c4.4,18,9.4,35.8,14.8,53.4c6.4,21.3,13.5,42.5,21,63.5c2.1,5.7,4.1,11.4,6.2,17
			c0.6,1.5,3.9,0.6,3.3-0.9c-8-21.8-15.6-43.7-22.6-65.8c-5.8-18.3-11.2-36.9-16.2-55.6c-4-15.4-7.7-30.8-10.7-46.4
			c-2.5-12.6-4.6-25.3-6.2-38.2c-1.3-10-2.2-20.1-2.6-30.2c-0.3-7.8-0.3-15.5,0-23.3c0.3-5.7,0.8-11.5,1.7-17.1
			c0.7-3.9,1.5-7.8,2.5-11.6c0.1-0.3,0.1-0.3,0.1-0.2c0.1-0.2,0.1-0.3,0.2-0.6c0.1-0.3,0.2-0.7,0.3-1c0.2-0.6,0.5-1.1,0.6-1.8
			c0.3-0.9,0.7-1.8,1.1-2.8c0.5-0.9,0.8-1.7,1.4-2.6c0.1-0.2-0.2,0.3-0.1,0.2C191.5,73.2,188.4,72.6,187.5,73.9L187.5,73.9z"/>
	</g>
</g>
<path class="st7" d="M198,241.1c0,0,55.7-46.1,26-49.9C192.1,186.9,198,241.1,198,241.1z"/>
<path class="st7" d="M204,265.3c0,0-86.7-12.2-56.4-30.4C180.4,215.1,204,265.3,204,265.3z"/>
<g>
	<g>
		<g>
			<path class="st8" d="M220,376.9c-0.9-6.1-1.7-12.3-2.5-18.5c-1.8-15.1-3.3-30.3-4.5-45.4c-1.5-19.1-2.3-38.4-2.2-57.7
				c0.1-18.5,1.1-37.2,4.6-55.4c1.5-7.5,3.3-15,6.2-22.1c2.3-5.6,5.3-11.2,9.4-15.7c0.9-0.9,1.8-1.8,2.9-2.6
				c0.6-0.5,0.3-0.9-0.3-1.1c-0.8-0.2-1.7,0.1-2.3,0.6c-10.3,8.4-14.8,22.5-17.8,35c-4.1,17.7-5.4,36-5.8,54.1
				c-0.5,19.5,0.2,39,1.5,58.5c1,16.1,2.6,32.1,4.5,48.2c0.6,5.2,1.3,10.4,1.9,15.6c0.3,2.3,0.3,4.9,1,7.2c0,0.1,0,0.2,0,0.3
				C216.9,378.9,220.3,378.2,220,376.9L220,376.9z"/>
		</g>
	</g>
	<path class="st8" d="M229.2,162.9c0,0,44.5-15.3,26-22C235.3,133.4,229.2,162.9,229.2,162.9z"/>
	<path class="st8" d="M220,176.8c0,0,7.3-30.6-7.3-27.6C197,152.4,220,176.8,220,176.8z"/>
	<path class="st8" d="M221,177.6c0,0,37.8,2.5,35.1-13.8C253,146.5,221,177.6,221,177.6z"/>
	<path class="st8" d="M212.2,215.5c0,0-3.7-42.7-21-32.2C172.6,194.5,212.2,215.5,212.2,215.5z"/>
	<path class="st8" d="M208.9,261.1c0,0-7-34.4-22.9-27.2C168.7,241.9,208.9,261.1,208.9,261.1z"/>
	<path class="st8" d="M210.1,215c0,0,45.5,1.8,38.2-15.5C240.3,180.7,210.1,215,210.1,215z"/>
	<path class="st8" d="M208.6,262.6c0,0,43-0.7,32-13.8C228.9,234.9,208.6,262.6,208.6,262.6z"/>
</g>
<g>
	<path class="st9" d="M221.9,70c0,0-1.6,67.1-39.2,64.4c-37.7-2.6-38.5-41-25.1-78.2C157.6,56.2,169.6,54.8,221.9,70z"/>
</g>
<g>
	<g>
		<path class="st10" d="M167.9,63c-1.3,6.3-1.9,12.8-2.4,19.3c-0.8,11.9-0.8,24.4,2.9,35.9c1.8,5.7,4.8,11.4,9.5,15.3
			c0.8,0.7,3.9-0.6,3.1-1.3c-8.9-7.2-11.4-19.8-12.3-30.6c-0.9-10.7-0.2-21.6,1.3-32.2c0.3-2.3,0.7-4.5,1.1-6.8
			C171.3,61.4,168,62,167.9,63L167.9,63z"/>
	</g>
</g>
<g>
	<g>
		<path class="st10" d="M187.1,66.2c-1.8,2.5-2.9,5.7-3.8,8.7c-3.1,9.7-4.2,20.2-4.7,30.4c-0.5,10-0.2,19.8,0.3,29.8
			c0.1,1.7,3.4,1.3,3.3-0.2c-0.9-15.1-1.1-30.6,1.1-45.8c1-6.7,2.4-13.5,5.3-19.7c0.3-0.7,0.6-1.3,1-1.8c0.1-0.1,0.2-0.3,0.2-0.5
			c0.1-0.2-0.2,0.3-0.1,0.1C191.1,65.4,188.1,64.9,187.1,66.2L187.1,66.2z"/>
	</g>
</g>
<g>
	<g>
		<path class="st10" d="M208.5,70.8c-0.9,6.7-2.3,13.2-3.8,19.7c-2.5,11-5.4,22.6-11.2,32.4c-1.3,2.1-2.6,4.1-4.5,5.8
			c-0.6,0.6-1.6,1.3-2.1,1.5c-0.2,0.1-0.5,0.2-0.7,0.3c-0.3,0.1-0.2,0.1-0.3,0.1c-0.7,0.2-0.6,0.1-1,0.2c-0.7,0.1-1.7,0.5-1.8,1.3
			c-0.1,0.8,0.9,1,1.5,0.9c4.4-0.5,7.8-3.6,10.2-7c3.2-4.5,5.4-9.6,7.2-14.7c3.9-10.8,6.5-22.1,8.6-33.4c0.5-2.5,0.9-5.2,1.3-7.7
			C212,68.9,208.7,69.4,208.5,70.8L208.5,70.8z"/>
	</g>
</g>
</svg>
